ply
format ascii 1.0
comment Created in Blender version 4.0.2
element vertex 232
property float x
property float y
property float z
property float nx
property float ny
property float nz
property uchar red
property uchar green
property uchar blue
property uchar alpha
property float s
property float t
element face 100
property list uchar uint vertex_indices
end_header
0.375 0.15625 0.375 -0.5773503 0.5773503 -0.5773503 254 254 254 255 0.34375003 0.62500006
0.375 0.15625 0.4375 -0.5773503 0.5773503 0.5773503 254 254 254 255 0.34375003 0.56249994
0.375 0.1875 0.4375 -1 0 0 254 254 254 255 0.37500003 0.56249994
0.375 0.1875 0.375 -0.5773503 0.5773503 -0.5773503 254 254 254 255 0.37500003 0.62500006
0.4375 0.15625 0.375 0.5773503 0.5773503 -0.5773503 254 254 254 255 0.4375 0.65625006
0.375 0.15625 0.375 -0.5773503 0.5773503 -0.5773503 254 254 254 255 0.37500003 0.65625006
0.4375 0.1875 0.375 0 0 -1 254 254 254 255 0.4375 0.62500006
0.625 0.15625 0.625 0.5773503 0.5773503 0.5773503 254 254 254 255 0.65625 0.375
0.625 0.15625 0.5625 0.5773503 0.5773503 -0.5773503 254 254 254 255 0.65625 0.43749997
0.625 0.1875 0.5625 1 0 0 254 254 254 255 0.625 0.43749997
0.625 0.1875 0.625 0.5773503 0.5773503 0.5773503 254 254 254 255 0.625 0.375
0.625 0.15625 0.375 0.5773503 0.5773503 -0.5773503 254 254 254 255 0.625 0.65625006
0.5625 0.15625 0.375 -0.5773503 0.5773503 -0.5773503 254 254 254 255 0.5625001 0.65625006
0.5625 0.1875 0.375 0 0 -1 254 254 254 255 0.5625001 0.62500006
0.625 0.1875 0.375 0.5773503 0.5773503 -0.5773503 254 254 254 255 0.625 0.62500006
0.375 0.15625 0.5625 -0.5773503 0.5773503 -0.5773503 254 254 254 255 0.34375003 0.43749997
0.375 0.15625 0.625 -0.5773503 0.5773503 0.5773503 254 254 254 255 0.34375003 0.375
0.375 0.1875 0.625 -0.5773503 0.5773503 0.5773503 254 254 254 255 0.37500003 0.375
0.375 0.1875 0.5625 -1 0 0 254 254 254 255 0.37500003 0.43749997
0.375 0.15625 0.625 -0.5773503 0.5773503 0.5773503 254 254 254 255 0.37500003 0.34375
0.4375 0.15625 0.625 0.5773503 0.5773503 0.5773503 254 254 254 255 0.4375 0.34375
0.4375 0.1875 0.625 0 0 1 254 254 254 255 0.4375 0.375
0.5625 0.15625 0.625 -0.5773503 0.5773503 0.5773503 254 254 254 255 0.5625001 0.34375
0.625 0.15625 0.625 0.5773503 0.5773503 0.5773503 254 254 254 255 0.625 0.34375
0.5625 0.1875 0.625 0 0 1 254 254 254 255 0.5625001 0.375
0.625 0.15625 0.4375 0.5773503 0.5773503 0.5773503 254 254 254 255 0.65625 0.56249994
0.625 0.15625 0.375 0.5773503 0.5773503 -0.5773503 254 254 254 255 0.65625 0.62500006
0.625 0.1875 0.4375 1 0 0 254 254 254 255 0.625 0.56249994
0.5625 0.125 0.375 -0.70710677 0 -0.70710677 254 254 254 255 0.56250006 0.6875
0.4375 0.125 0.375 0.70710677 0 -0.70710677 254 254 254 255 0.43749994 0.6875
0.625 0.125 0.5625 0.70710677 0 -0.70710677 254 254 254 255 0.6875 0.43750003
0.625 0.125 0.4375 0.70710677 0 0.70710677 254 254 254 255 0.6875 0.5625
0.5 0.125 0.125 -0.70710677 0 -0.70710677 254 254 254 255 0.46875006 0.90625
0.5 0.125 0.25 -0.70710677 0 0.70710677 254 254 254 255 0.46875006 0.78125006
0.5 0.15625 0.25 -0.5773503 0.5773503 0.5773503 254 254 254 255 0.50000006 0.78125006
0.5 0.15625 0.125 -0.5773503 0.5773503 -0.5773503 254 254 254 255 0.50000006 0.90625
0.5625 0.125 0.875 -0.70710677 0 0.70710677 254 254 254 255 0.5625001 0.0625
0.625 0.125 0.875 0.70710677 0 0.70710677 254 254 254 255 0.625 0.0625
0.625 0.15625 0.875 0.5773503 0.5773503 0.5773503 254 254 254 255 0.625 0.09375
0.5625 0.15625 0.875 -0.5773503 0.5773503 0.5773503 254 254 254 255 0.5625001 0.09375
0.25 0.125 0.4375 0.70710677 0 0.70710677 254 254 254 255 0.25000006 0.5625
0.25 0.125 0.375 0.70710677 0 -0.70710677 254 254 254 255 0.25000006 0.625
0.25 0.15625 0.375 0.5773503 0.5773503 -0.5773503 254 254 254 255 0.21875006 0.62500006
0.25 0.15625 0.4375 0.5773503 0.5773503 0.5773503 254 254 254 255 0.21875006 0.56249994
0.625 0.125 0.75 0.70710677 0 -0.70710677 254 254 254 255 0.625 0.25000003
0.5625 0.125 0.75 -0.70710677 0 -0.70710677 254 254 254 255 0.5625001 0.25000003
0.5625 0.15625 0.75 -0.5773503 0.5773503 -0.5773503 254 254 254 255 0.5625001 0.21875003
0.625 0.15625 0.75 0.5773503 0.5773503 -0.5773503 254 254 254 255 0.625 0.21875003
0.25 0.125 0.625 0.70710677 0 0.70710677 254 254 254 255 0.25000006 0.375
0.25 0.125 0.5625 0.70710677 0 -0.70710677 254 254 254 255 0.25000006 0.43749997
0.25 0.15625 0.5625 0.5773503 0.5773503 -0.5773503 254 254 254 255 0.21875006 0.43749997
0.25 0.15625 0.625 0.5773503 0.5773503 0.5773503 254 254 254 255 0.21875006 0.375
0.6875 0.125 0.875 -0.70710677 0 0.70710677 254 254 254 255 0.6875001 0.0625
0.75 0.125 0.875 0.70710677 0 0.70710677 254 254 254 255 0.7500001 0.0625
0.75 0.15625 0.875 0.5773503 0.5773503 0.5773503 254 254 254 255 0.7500001 0.09375
0.6875 0.15625 0.875 -0.5773503 0.5773503 0.5773503 254 254 254 255 0.68750006 0.09375
0.4375 0.125 0.625 0.70710677 0 0.70710677 254 254 254 255 0.43749994 0.3125
0.5625 0.125 0.625 -0.70710677 0 0.70710677 254 254 254 255 0.56250006 0.3125
0.625 0.15625 0.375 0.5773503 0.5773503 -0.5773503 254 254 254 255 0.690625 0.68437505
0.625 0.15625 0.4375 0.5773503 0.5773503 0.5773503 254 254 254 255 0.690625 0.62812495
0.6875 0.15625 0.4375 0.5773503 0.5773503 0.5773503 254 254 254 255 0.74687505 0.62812495
0.6875 0.15625 0.375 0.5773503 0.5773503 -0.5773503 254 254 254 255 0.74687505 0.68437505
0.625 0.15625 0.5625 0.5773503 0.5773503 -0.5773503 254 254 254 255 0.690625 0.371875
0.625 0.15625 0.625 0.5773503 0.5773503 0.5773503 254 254 254 255 0.690625 0.315625
0.6875 0.15625 0.625 0.5773503 0.5773503 0.5773503 254 254 254 255 0.74687505 0.315625
0.6875 0.15625 0.5625 0.5773503 0.5773503 -0.5773503 254 254 254 255 0.74687505 0.371875
0.5625 0.15625 0.3125 -0.5773503 0.5773503 -0.5773503 254 254 254 255 0.62812513 0.746875
0.5625 0.15625 0.375 -0.5773503 0.5773503 -0.5773503 254 254 254 255 0.62812513 0.6906251
0.625 0.15625 0.375 0.5773503 0.5773503 -0.5773503 254 254 254 255 0.684375 0.6906251
0.625 0.15625 0.3125 0.5773503 0.5773503 -0.5773503 254 254 254 255 0.684375 0.746875
0.5625 0.15625 0.625 -0.5773503 0.5773503 0.5773503 254 254 254 255 0.62812513 0.309375
0.5625 0.15625 0.6875 -0.5773503 0.5773503 0.5773503 254 254 254 255 0.62812513 0.253125
0.625 0.15625 0.6875 0.5773503 0.5773503 0.5773503 254 254 254 255 0.684375 0.253125
0.625 0.15625 0.625 0.5773503 0.5773503 0.5773503 254 254 254 255 0.684375 0.309375
0.375 0.15625 0.3125 -0.5773503 0.5773503 -0.5773503 254 254 254 255 0.315625 0.746875
0.375 0.15625 0.375 -0.5773503 0.5773503 -0.5773503 254 254 254 255 0.315625 0.6906251
0.4375 0.15625 0.375 0.5773503 0.5773503 -0.5773503 254 254 254 255 0.371875 0.6906251
0.4375 0.15625 0.3125 0.5773503 0.5773503 -0.5773503 254 254 254 255 0.371875 0.746875
0.375 0.15625 0.625 -0.5773503 0.5773503 0.5773503 254 254 254 255 0.315625 0.309375
0.375 0.15625 0.6875 -0.5773503 0.5773503 0.5773503 254 254 254 255 0.315625 0.253125
0.4375 0.15625 0.6875 0.5773503 0.5773503 0.5773503 254 254 254 255 0.371875 0.253125
0.4375 0.15625 0.625 0.5773503 0.5773503 0.5773503 254 254 254 255 0.371875 0.309375
0.3125 0.15625 0.375 -0.5773503 0.5773503 -0.5773503 254 254 254 255 0.25312504 0.68437505
0.3125 0.15625 0.4375 -0.5773503 0.5773503 0.5773503 254 254 254 255 0.25312504 0.62812495
0.375 0.15625 0.4375 -0.5773503 0.5773503 0.5773503 254 254 254 255 0.30937502 0.62812495
0.375 0.15625 0.375 -0.5773503 0.5773503 -0.5773503 254 254 254 255 0.30937502 0.68437505
0.3125 0.15625 0.5625 -0.5773503 0.5773503 -0.5773503 254 254 254 255 0.25312504 0.371875
0.3125 0.15625 0.625 -0.5773503 0.5773503 0.5773503 254 254 254 255 0.25312504 0.315625
0.375 0.15625 0.625 -0.5773503 0.5773503 0.5773503 254 254 254 255 0.30937502 0.315625
0.375 0.15625 0.5625 -0.5773503 0.5773503 -0.5773503 254 254 254 255 0.30937502 0.371875
0.25 0.125 0.375 0.70710677 0 -0.70710677 254 254 254 255 0.21875006 0.65625006
0.125 0.125 0.375 -0.70710677 0 -0.70710677 254 254 254 255 0.093749985 0.65625006
0.125 0.15625 0.375 -0.5773503 0.5773503 -0.5773503 254 254 254 255 0.093749985 0.62500006
0.3125 0.125 0.25 0.70710677 0 0.70710677 254 254 254 255 0.34375003 0.78125006
0.3125 0.125 0.125 0.70710677 0 -0.70710677 254 254 254 255 0.34375003 0.90625
0.3125 0.15625 0.125 0.5773503 0.5773503 -0.5773503 254 254 254 255 0.31250003 0.90625
0.3125 0.15625 0.25 0.5773503 0.5773503 0.5773503 254 254 254 255 0.31250003 0.78125006
0.875 0.125 0.5625 0.70710677 0 -0.70710677 254 254 254 255 0.90625006 0.46874997
0.75 0.125 0.5625 -0.70710677 0 -0.70710677 254 254 254 255 0.7812501 0.46874997
0.75 0.15625 0.5625 -0.5773503 0.5773503 -0.5773503 254 254 254 255 0.7812501 0.43749997
0.875 0.15625 0.5625 0.5773503 0.5773503 -0.5773503 254 254 254 255 0.90625006 0.43749997
0.625 0.125 0.875 0.70710677 0 0.70710677 254 254 254 255 0.65625 0.09375
0.625 0.125 0.75 0.70710677 0 -0.70710677 254 254 254 255 0.65625 0.21875003
0.375 0.125 0.75 -0.70710677 0 -0.70710677 254 254 254 255 0.34375003 0.21875003
0.375 0.125 0.875 -0.70710677 0 0.70710677 254 254 254 255 0.34375003 0.09375
0.375 0.15625 0.875 -0.5773503 0.5773503 0.5773503 254 254 254 255 0.37500003 0.09375
0.375 0.15625 0.75 -0.5773503 0.5773503 -0.5773503 254 254 254 255 0.37500003 0.21875003
0.75 0.125 0.875 0.70710677 0 0.70710677 254 254 254 255 0.7812501 0.09375
0.75 0.125 0.75 0.70710677 0 -0.70710677 254 254 254 255 0.7812501 0.21875003
0.75 0.15625 0.75 0.5773503 0.5773503 -0.5773503 254 254 254 255 0.7500001 0.21875003
0.25 0.125 0.75 -0.70710677 0 -0.70710677 254 254 254 255 0.21875006 0.21875003
0.25 0.125 0.875 -0.70710677 0 0.70710677 254 254 254 255 0.21875006 0.09375
0.25 0.15625 0.875 -0.5773503 0.5773503 0.5773503 254 254 254 255 0.25000006 0.09375
0.25 0.15625 0.75 -0.5773503 0.5773503 -0.5773503 254 254 254 255 0.25000006 0.21875003
0.5625 0.125 0.25 0.70710677 0 0.70710677 254 254 254 255 0.5937501 0.78125006
0.5625 0.125 0.125 0.70710677 0 -0.70710677 254 254 254 255 0.5937501 0.90625
0.5625 0.15625 0.125 0.5773503 0.5773503 -0.5773503 254 254 254 255 0.5625001 0.90625
0.5625 0.15625 0.25 0.5773503 0.5773503 0.5773503 254 254 254 255 0.5625001 0.78125006
0.75 0.15625 0.375 -0.5773503 0.5773503 -0.5773503 254 254 254 255 0.7812501 0.62500006
0.75 0.15625 0.4375 -0.5773503 0.5773503 0.5773503 254 254 254 255 0.7812501 0.56249994
0.875 0.15625 0.4375 0.5773503 0.5773503 0.5773503 254 254 254 255 0.90625006 0.56249994
0.875 0.15625 0.375 0.5773503 0.5773503 -0.5773503 254 254 254 255 0.90625006 0.62500006
0.75 0.125 0.4375 -0.70710677 0 0.70710677 254 254 254 255 0.7812501 0.53124994
0.875 0.125 0.4375 0.70710677 0 0.70710677 254 254 254 255 0.90625006 0.53124994
0.5625 0.125 0.125 0.70710677 0 -0.70710677 254 254 254 255 0.5625001 0.9375
0.5 0.125 0.125 -0.70710677 0 -0.70710677 254 254 254 255 0.5000001 0.9375
0.3125 0.15625 0.875 0.5773503 0.5773503 0.5773503 254 254 254 255 0.31250003 0.09375
0.3125 0.15625 0.75 0.5773503 0.5773503 -0.5773503 254 254 254 255 0.31250003 0.21875003
0.5 0.125 0.25 -0.70710677 0 0.70710677 254 254 254 255 0.5000001 0.75000006
0.5625 0.125 0.25 0.70710677 0 0.70710677 254 254 254 255 0.5625001 0.75000006
0.25 0.125 0.125 -0.70710677 0 -0.70710677 254 254 254 255 0.21875006 0.90625
0.25 0.125 0.25 -0.70710677 0 0.70710677 254 254 254 255 0.21875006 0.78125006
0.25 0.15625 0.25 -0.5773503 0.5773503 0.5773503 254 254 254 255 0.25000006 0.78125006
0.25 0.15625 0.125 -0.5773503 0.5773503 -0.5773503 254 254 254 255 0.25000006 0.90625
0.4375 0.125 0.75 0.70710677 0 -0.70710677 254 254 254 255 0.4375 0.25000003
0.375 0.125 0.75 -0.70710677 0 -0.70710677 254 254 254 255 0.375 0.25000003
0.4375 0.15625 0.75 0.5773503 0.5773503 -0.5773503 254 254 254 255 0.4375 0.21875003
0.4375 0.15625 0.875 0.5773503 0.5773503 0.5773503 254 254 254 255 0.4375 0.09375
0.375 0.125 0.875 -0.70710677 0 0.70710677 254 254 254 255 0.375 0.0625
0.4375 0.125 0.875 0.70710677 0 0.70710677 254 254 254 255 0.4375 0.0625
0.3125 0.125 0.875 0.70710677 0 0.70710677 254 254 254 255 0.34375003 0.09375
0.3125 0.125 0.75 0.70710677 0 -0.70710677 254 254 254 255 0.34375003 0.21875003
0.3125 0.125 0.125 0.70710677 0 -0.70710677 254 254 254 255 0.31250006 0.9375
0.25 0.125 0.125 -0.70710677 0 -0.70710677 254 254 254 255 0.25000006 0.9375
0.25 0.125 0.25 -0.70710677 0 0.70710677 254 254 254 255 0.25000006 0.75000006
0.3125 0.125 0.25 0.70710677 0 0.70710677 254 254 254 255 0.31250006 0.75000006
0.3125 0.125 0.75 0.70710677 0 -0.70710677 254 254 254 255 0.31250006 0.25000003
0.25 0.125 0.75 -0.70710677 0 -0.70710677 254 254 254 255 0.25000006 0.25000003
0.75 0.125 0.25 0.70710677 0 0.70710677 254 254 254 255 0.7812501 0.78125006
0.75 0.125 0.125 0.70710677 0 -0.70710677 254 254 254 255 0.7812501 0.90625
0.75 0.15625 0.125 0.5773503 0.5773503 -0.5773503 254 254 254 255 0.7500001 0.90625
0.75 0.15625 0.25 0.5773503 0.5773503 0.5773503 254 254 254 255 0.7500001 0.78125006
0.25 0.125 0.875 -0.70710677 0 0.70710677 254 254 254 255 0.25000006 0.0625
0.3125 0.125 0.875 0.70710677 0 0.70710677 254 254 254 255 0.31250006 0.0625
0.4375 0.125 0.875 0.70710677 0 0.70710677 254 254 254 255 0.46875 0.09375
0.4375 0.125 0.75 0.70710677 0 -0.70710677 254 254 254 255 0.46875 0.21875003
0.125 0.15625 0.4375 -0.5773503 0.5773503 0.5773503 254 254 254 255 0.093749985 0.56249994
0.5625 0.125 0.75 -0.70710677 0 -0.70710677 254 254 254 255 0.5312501 0.21875003
0.5625 0.125 0.875 -0.70710677 0 0.70710677 254 254 254 255 0.5312501 0.09375
0.125 0.125 0.625 -0.70710677 0 0.70710677 254 254 254 255 0.093749985 0.34375
0.25 0.125 0.625 0.70710677 0 0.70710677 254 254 254 255 0.21875006 0.34375
0.125 0.15625 0.625 -0.5773503 0.5773503 0.5773503 254 254 254 255 0.093749985 0.375
0.6875 0.15625 0.25 -0.5773503 0.5773503 0.5773503 254 254 254 255 0.68750006 0.78125006
0.6875 0.15625 0.125 -0.5773503 0.5773503 -0.5773503 254 254 254 255 0.68750006 0.90625
0.125 0.15625 0.5625 -0.5773503 0.5773503 -0.5773503 254 254 254 255 0.093749985 0.43749997
0.6875 0.125 0.75 -0.70710677 0 -0.70710677 254 254 254 255 0.65625006 0.21875003
0.6875 0.125 0.875 -0.70710677 0 0.70710677 254 254 254 255 0.65625006 0.09375
0.6875 0.15625 0.75 -0.5773503 0.5773503 -0.5773503 254 254 254 255 0.68750006 0.21875003
0.25 0.125 0.5625 0.70710677 0 -0.70710677 254 254 254 255 0.21875006 0.46874997
0.125 0.125 0.5625 -0.70710677 0 -0.70710677 254 254 254 255 0.093749985 0.46874997
0.75 0.125 0.5625 -0.70710677 0 -0.70710677 254 254 254 255 0.7500001 0.4375
0.75 0.125 0.625 -0.70710677 0 0.70710677 254 254 254 255 0.7500001 0.375
0.75 0.15625 0.625 -0.5773503 0.5773503 0.5773503 254 254 254 255 0.7812501 0.375
0.75 0.125 0.375 -0.70710677 0 -0.70710677 254 254 254 255 0.7500001 0.625
0.75 0.125 0.4375 -0.70710677 0 0.70710677 254 254 254 255 0.7500001 0.5625
0.6875 0.125 0.125 -0.70710677 0 -0.70710677 254 254 254 255 0.65625006 0.90625
0.6875 0.125 0.25 -0.70710677 0 0.70710677 254 254 254 255 0.65625006 0.78125006
0.875 0.125 0.625 0.70710677 0 0.70710677 254 254 254 255 0.93750006 0.375
0.875 0.125 0.5625 0.70710677 0 -0.70710677 254 254 254 255 0.93750006 0.4375
0.875 0.15625 0.625 0.5773503 0.5773503 0.5773503 254 254 254 255 0.90625006 0.375
0.875 0.125 0.4375 0.70710677 0 0.70710677 254 254 254 255 0.93750006 0.5625
0.875 0.125 0.375 0.70710677 0 -0.70710677 254 254 254 255 0.93750006 0.625
0.75 0.125 0.625 -0.70710677 0 0.70710677 254 254 254 255 0.7812501 0.34375
0.875 0.125 0.625 0.70710677 0 0.70710677 254 254 254 255 0.90625006 0.34375
0.875 0.125 0.375 0.70710677 0 -0.70710677 254 254 254 255 0.90625006 0.65625006
0.75 0.125 0.375 -0.70710677 0 -0.70710677 254 254 254 255 0.7812501 0.65625006
0.125 0.125 0.4375 -0.70710677 0 0.70710677 254 254 254 255 0.093749985 0.53124994
0.25 0.125 0.4375 0.70710677 0 0.70710677 254 254 254 255 0.21875006 0.53124994
0.75 0.125 0.125 0.70710677 0 -0.70710677 254 254 254 255 0.7500001 0.9375
0.6875 0.125 0.125 -0.70710677 0 -0.70710677 254 254 254 255 0.6875001 0.9375
0.125 0.125 0.5625 -0.70710677 0 -0.70710677 254 254 254 255 0.062499985 0.43749997
0.125 0.125 0.625 -0.70710677 0 0.70710677 254 254 254 255 0.062499985 0.375
0.6875 0.125 0.25 -0.70710677 0 0.70710677 254 254 254 255 0.6875001 0.75000006
0.75 0.125 0.25 0.70710677 0 0.70710677 254 254 254 255 0.7500001 0.75000006
0.125 0.125 0.375 -0.70710677 0 -0.70710677 254 254 254 255 0.062499985 0.625
0.125 0.125 0.4375 -0.70710677 0 0.70710677 254 254 254 255 0.062499985 0.5625
0.75 0.125 0.75 0.70710677 0 -0.70710677 254 254 254 255 0.7500001 0.25000003
0.6875 0.125 0.75 -0.70710677 0 -0.70710677 254 254 254 255 0.6875001 0.25000003
0.625 0.125 0.6875 0.70710677 0 0.70710677 254 254 254 255 0.684375 0.253125
0.625 0.125 0.625 0.70710677 0 0.70710677 254 254 254 255 0.684375 0.309375
0.6875 0.125 0.625 0.70710677 0 0.70710677 254 254 254 255 0.74687505 0.315625
0.6875 0.125 0.5625 0.70710677 0 -0.70710677 254 254 254 255 0.74687505 0.371875
0.6875 0.125 0.4375 0.70710677 0 0.70710677 254 254 254 255 0.74687505 0.62812495
0.6875 0.125 0.375 0.70710677 0 -0.70710677 254 254 254 255 0.74687505 0.68437505
0.375 0.125 0.375 -0.70710677 0 -0.70710677 254 254 254 255 0.30937502 0.68437505
0.3125 0.125 0.375 -0.70710677 0 -0.70710677 254 254 254 255 0.25312504 0.68437505
0.625 0.125 0.625 0.70710677 0 0.70710677 254 254 254 255 0.690625 0.315625
0.375 0.125 0.5625 -0.70710677 0 -0.70710677 254 254 254 255 0.30937502 0.371875
0.3125 0.125 0.5625 -0.70710677 0 -0.70710677 254 254 254 255 0.25312504 0.371875
0.625 0.125 0.3125 0.70710677 0 -0.70710677 254 254 254 255 0.684375 0.746875
0.5625 0.125 0.3125 -0.70710677 0 -0.70710677 254 254 254 255 0.62812513 0.746875
0.5625 0.125 0.6875 -0.70710677 0 0.70710677 254 254 254 255 0.62812513 0.253125
0.375 0.125 0.3125 -0.70710677 0 -0.70710677 254 254 254 255 0.315625 0.746875
0.375 0.125 0.375 -0.70710677 0 -0.70710677 254 254 254 255 0.315625 0.6906251
0.4375 0.125 0.3125 0.70710677 0 -0.70710677 254 254 254 255 0.371875 0.746875
0.5625 0.125 0.625 -0.70710677 0 0.70710677 254 254 254 255 0.6281251 0.253125
0.3125 0.125 0.625 -0.70710677 0 0.70710677 254 254 254 255 0.25312504 0.315625
0.375 0.125 0.6875 -0.70710677 0 0.70710677 254 254 254 255 0.315625 0.253125
0.4375 0.125 0.6875 0.70710677 0 0.70710677 254 254 254 255 0.371875 0.253125
0.3125 0.125 0.4375 -0.70710677 0 0.70710677 254 254 254 255 0.25312504 0.62812495
0.625 0.125 0.375 0.70710677 0 -0.70710677 254 254 254 255 0.684375 0.6906251
0.375 0.125 0.4375 -0.70710677 0 0.70710677 254 254 254 255 0.30937502 0.62812495
0.375 0.125 0.625 -0.70710677 0 0.70710677 254 254 254 255 0.315625 0.309375
0.625 0.125 0.375 0.70710677 0 -0.70710677 254 254 254 255 0.690625 0.68437505
0.375 0.125 0.625 -0.70710677 0 0.70710677 254 254 254 255 0.30937502 0.315625
0.4375 0.125 0.625 0.70710677 0 0.70710677 254 254 254 255 0.37187496 0.253125
0.625 0.125 0.4375 0.70710677 0 0.70710677 254 254 254 255 0.690625 0.62812495
0.4375 0.125 0.375 0.70710677 0 -0.70710677 254 254 254 255 0.37187496 0.746875
0.625 0.125 0.5625 0.70710677 0 -0.70710677 254 254 254 255 0.690625 0.371875
0.5625 0.125 0.375 -0.70710677 0 -0.70710677 254 254 254 255 0.6281251 0.746875
0.375 0.125 0.4375 -0.70710677 0 0.70710677 254 254 254 255 0.3125 0.5625
0.375 0.125 0.5625 -0.70710677 0 -0.70710677 254 254 254 255 0.3125 0.43750003
4 0 1 2 3
4 4 5 3 6
4 7 8 9 10
4 11 12 13 14
4 15 16 17 18
4 19 20 21 17
4 22 23 10 24
4 25 26 14 27
4 13 28 29 6
4 14 3 17 10
4 30 31 27 9
4 32 33 34 35
4 36 37 38 39
4 40 41 42 43
4 44 45 46 47
4 48 49 50 51
4 52 53 54 55
4 24 21 56 57
4 58 59 60 61
4 62 63 64 65
4 66 67 68 69
4 70 71 72 73
4 74 75 76 77
4 78 79 80 81
4 82 83 84 85
4 86 87 88 89
4 90 91 92 42
4 93 94 95 96
4 97 98 99 100
4 101 102 47 38
4 103 104 105 106
4 107 108 109 54
4 110 111 112 113
4 114 115 116 117
4 118 119 120 121
4 122 123 120 119
4 124 125 35 116
4 112 126 127 113
4 128 129 117 34
4 130 131 132 133
4 134 135 106 136
4 105 137 136 106
4 138 139 137 105
4 140 141 127 126
4 142 143 133 95
4 34 117 116 35
4 144 145 96 132
4 39 38 47 46
4 146 147 113 127
4 148 149 150 151
4 152 153 126 112
4 154 155 136 137
4 92 156 43 42
4 157 158 39 46
4 159 160 51 161
4 162 151 150 163
4 164 161 51 50
4 165 166 55 167
4 168 169 164 50
4 170 171 172 99
4 173 174 119 118
4 175 176 162 163
4 177 178 100 179
4 180 181 121 120
4 182 183 179 172
4 184 185 118 121
4 99 172 179 100
4 186 187 43 156
4 188 189 163 150
4 190 191 161 164
4 192 193 151 162
4 194 195 156 92
4 196 197 167 109
4 55 54 109 167
4 73 72 198 199
4 65 64 200 201
4 61 60 202 203
4 82 85 204 205
4 64 63 206 200
4 86 89 207 208
4 66 69 209 210
4 72 71 211 198
4 75 74 212 213
4 74 77 214 212
4 71 70 215 211
4 87 86 208 216
4 80 79 217 218
4 83 82 205 219
4 69 68 220 209
4 84 83 219 221
4 79 78 222 217
4 58 61 203 223
4 88 87 216 224
4 81 80 218 225
4 60 59 226 202
4 77 76 227 214
4 62 65 201 228
4 67 66 210 229
4 230 231 18 2
4 132 96 95 133
