ply
format ascii 1.0
comment Created in Blender version 4.0.2
element vertex 20
property float x
property float y
property float z
property float nx
property float ny
property float nz
property uchar red
property uchar green
property uchar blue
property uchar alpha
property float s
property float t
element face 6
property list uchar uint vertex_indices
end_header
1 0.125 0 0.5773503 0.5773503 -0.5773503 254 254 254 255 1 1
1 0.125 1 0.5773503 0.5773503 0.5773503 254 254 254 255 1 0
1 0 1 0.5773503 -0.5773503 0.5773503 254 254 254 255 0.875 0
1 0 0 0.5773503 -0.5773503 -0.5773503 254 254 254 255 0.875 1
1 0.125 1 0.5773503 0.5773503 0.5773503 254 254 254 255 0 0
0 0.125 1 -0.5773503 0.5773503 0.5773503 254 254 254 255 1 -0
0 0 1 -0.5773503 -0.5773503 0.5773503 254 254 254 255 1 0.125
1 0 1 0.5773503 -0.5773503 0.5773503 254 254 254 255 0 0.125
1 0 0 0.5773503 -0.5773503 -0.5773503 254 254 254 255 1 0.875
0 0 0 -0.5773503 -0.5773503 -0.5773503 254 254 254 255 0 0.875
0 0.125 0 -0.5773503 0.5773503 -0.5773503 254 254 254 255 0 1
0 0.125 0 -0.5773503 0.5773503 -0.5773503 254 254 254 255 -7.450581e-09 0
0 0 0 -0.5773503 -0.5773503 -0.5773503 254 254 254 255 0.12499999 0
0 0 1 -0.5773503 -0.5773503 0.5773503 254 254 254 255 0.12499999 1
0 0.125 1 -0.5773503 0.5773503 0.5773503 254 254 254 255 2.2351742e-08 1
1 0 1 0.5773503 -0.5773503 0.5773503 254 254 254 255 1 0
0 0 1 -0.5773503 -0.5773503 0.5773503 254 254 254 255 0 0
0 0 0 -0.5773503 -0.5773503 -0.5773503 254 254 254 255 0 1
1 0 0 0.5773503 -0.5773503 -0.5773503 254 254 254 255 1 1
0 0.125 1 -0.5773503 0.5773503 0.5773503 254 254 254 255 0 0
4 0 1 2 3
4 4 5 6 7
4 0 8 9 10
4 11 12 13 14
4 15 16 17 18
4 10 19 1 0
